<mxfile host="Electron" modified="2024-05-01T20:41:41.892Z" agent="Mozilla/5.0 (Windows NT 10.0; Win64; x64) AppleWebKit/537.36 (KHTML, like Gecko) draw.io/23.1.5 Chrome/120.0.6099.109 Electron/28.1.0 Safari/537.36" etag="teThNlndKNujSRcb3FgX" version="23.1.5" type="device">
  <diagram name="Page-1" id="O-xKSkLPYl-1Bb56oxQh">
    <mxGraphModel dx="1036" dy="614" grid="0" gridSize="10" guides="1" tooltips="1" connect="1" arrows="1" fold="1" page="1" pageScale="1" pageWidth="827" pageHeight="1169" math="0" shadow="0">
      <root>
        <mxCell id="0" />
        <mxCell id="1" parent="0" />
        <mxCell id="yFhiEoL9sG4I5cicUTSf-3" value="" style="shape=umlLifeline;perimeter=lifelinePerimeter;whiteSpace=wrap;html=1;container=1;dropTarget=0;collapsible=0;recursiveResize=0;outlineConnect=0;portConstraint=eastwest;newEdgeStyle={&quot;curved&quot;:0,&quot;rounded&quot;:0};participant=umlActor;fillColor=#6BB1D2;strokeWidth=2;" parent="1" vertex="1">
          <mxGeometry x="79" y="28" width="22" height="560" as="geometry" />
        </mxCell>
        <mxCell id="yFhiEoL9sG4I5cicUTSf-4" value="&lt;font style=&quot;font-size: 18px;&quot;&gt;&lt;b&gt;System&lt;/b&gt;&lt;/font&gt;" style="shape=umlLifeline;perimeter=lifelinePerimeter;whiteSpace=wrap;html=1;container=1;dropTarget=0;collapsible=0;recursiveResize=0;outlineConnect=0;portConstraint=eastwest;newEdgeStyle={&quot;curved&quot;:0,&quot;rounded&quot;:0};fillColor=#6BB1D2;strokeWidth=2;" parent="1" vertex="1">
          <mxGeometry x="363" y="28" width="100" height="560" as="geometry" />
        </mxCell>
        <mxCell id="hkRPH7-JD0FmCtIVeHMC-1" value="" style="html=1;points=[[0,0,0,0,5],[0,1,0,0,-5],[1,0,0,0,5],[1,1,0,0,-5]];perimeter=orthogonalPerimeter;outlineConnect=0;targetShapes=umlLifeline;portConstraint=eastwest;newEdgeStyle={&quot;curved&quot;:0,&quot;rounded&quot;:0};fillColor=#6BB1D2;" parent="yFhiEoL9sG4I5cicUTSf-4" vertex="1">
          <mxGeometry x="45" y="71" width="10" height="429" as="geometry" />
        </mxCell>
        <mxCell id="yFhiEoL9sG4I5cicUTSf-6" value="&lt;font style=&quot;font-size: 18px;&quot;&gt;&lt;b&gt;Data base&lt;/b&gt;&lt;/font&gt;" style="shape=umlLifeline;perimeter=lifelinePerimeter;whiteSpace=wrap;html=1;container=1;dropTarget=0;collapsible=0;recursiveResize=0;outlineConnect=0;portConstraint=eastwest;newEdgeStyle={&quot;curved&quot;:0,&quot;rounded&quot;:0};fillColor=#6BB1D2;strokeWidth=2;" parent="1" vertex="1">
          <mxGeometry x="708" y="28" width="100" height="560" as="geometry" />
        </mxCell>
        <mxCell id="hkRPH7-JD0FmCtIVeHMC-3" value="" style="html=1;points=[[0,0,0,0,5],[0,1,0,0,-5],[1,0,0,0,5],[1,1,0,0,-5]];perimeter=orthogonalPerimeter;outlineConnect=0;targetShapes=umlLifeline;portConstraint=eastwest;newEdgeStyle={&quot;curved&quot;:0,&quot;rounded&quot;:0};fillColor=#6BB1D2;" parent="yFhiEoL9sG4I5cicUTSf-6" vertex="1">
          <mxGeometry x="45" y="101" width="10" height="370" as="geometry" />
        </mxCell>
        <mxCell id="yFhiEoL9sG4I5cicUTSf-9" value="&lt;font style=&quot;font-size: 14px;&quot;&gt;&lt;b&gt;Check mail validation&lt;/b&gt;&lt;/font&gt;" style="html=1;verticalAlign=bottom;endArrow=block;curved=0;rounded=0;strokeWidth=2;" parent="1" edge="1">
          <mxGeometry width="80" relative="1" as="geometry">
            <mxPoint x="413" y="142" as="sourcePoint" />
            <mxPoint x="757" y="142" as="targetPoint" />
          </mxGeometry>
        </mxCell>
        <mxCell id="yFhiEoL9sG4I5cicUTSf-10" value="&lt;font style=&quot;font-size: 14px;&quot;&gt;&lt;b&gt;Mail is valid&lt;/b&gt;&lt;/font&gt;" style="html=1;verticalAlign=bottom;endArrow=open;dashed=1;endSize=8;curved=0;rounded=0;strokeWidth=2;" parent="1" edge="1">
          <mxGeometry relative="1" as="geometry">
            <mxPoint x="757" y="207" as="sourcePoint" />
            <mxPoint x="413" y="207" as="targetPoint" />
          </mxGeometry>
        </mxCell>
        <mxCell id="yFhiEoL9sG4I5cicUTSf-11" value="&lt;font style=&quot;font-size: 14px;&quot;&gt;&lt;b&gt;Mail is invalid&lt;/b&gt;&lt;/font&gt;" style="html=1;verticalAlign=bottom;endArrow=open;dashed=1;endSize=8;curved=0;rounded=0;strokeWidth=2;" parent="1" edge="1">
          <mxGeometry relative="1" as="geometry">
            <mxPoint x="757" y="304" as="sourcePoint" />
            <mxPoint x="413" y="304" as="targetPoint" />
          </mxGeometry>
        </mxCell>
        <mxCell id="yFhiEoL9sG4I5cicUTSf-17" value="&lt;b&gt;Alt&lt;/b&gt;" style="shape=umlFrame;whiteSpace=wrap;html=1;pointerEvents=0;" parent="1" vertex="1">
          <mxGeometry x="21" y="163" width="775" height="193" as="geometry" />
        </mxCell>
        <mxCell id="yFhiEoL9sG4I5cicUTSf-22" value="[If mail&lt;br&gt;is valid]" style="text;html=1;align=center;verticalAlign=middle;resizable=0;points=[];autosize=1;strokeColor=none;fillColor=none;" parent="1" vertex="1">
          <mxGeometry x="19" y="202" width="58" height="41" as="geometry" />
        </mxCell>
        <mxCell id="yFhiEoL9sG4I5cicUTSf-23" value="" style="endArrow=none;dashed=1;html=1;rounded=0;entryX=0.998;entryY=0.507;entryDx=0;entryDy=0;entryPerimeter=0;exitX=-0.001;exitY=0.503;exitDx=0;exitDy=0;exitPerimeter=0;strokeWidth=1;" parent="1" edge="1">
          <mxGeometry width="50" height="50" relative="1" as="geometry">
            <mxPoint x="20.22499999999991" y="262.07899999999995" as="sourcePoint" />
            <mxPoint x="794.45" y="262.851" as="targetPoint" />
          </mxGeometry>
        </mxCell>
        <mxCell id="yFhiEoL9sG4I5cicUTSf-24" value="[Else]" style="text;html=1;align=center;verticalAlign=middle;resizable=0;points=[];autosize=1;strokeColor=none;fillColor=none;" parent="1" vertex="1">
          <mxGeometry x="24" y="289" width="48" height="26" as="geometry" />
        </mxCell>
        <mxCell id="OQSpTz7OSguxNGqay04v-1" value="" style="endArrow=open;endFill=1;endSize=12;html=1;rounded=0;strokeWidth=2;" parent="1" edge="1">
          <mxGeometry width="160" relative="1" as="geometry">
            <mxPoint x="412" y="518" as="sourcePoint" />
            <mxPoint x="90" y="518" as="targetPoint" />
          </mxGeometry>
        </mxCell>
        <mxCell id="OQSpTz7OSguxNGqay04v-19" value="&lt;b&gt;&lt;font style=&quot;font-size: 14px;&quot;&gt;Activate user account&lt;/font&gt;&lt;/b&gt;" style="edgeLabel;html=1;align=center;verticalAlign=middle;resizable=0;points=[];" parent="OQSpTz7OSguxNGqay04v-1" vertex="1" connectable="0">
          <mxGeometry x="0.0932" y="2" relative="1" as="geometry">
            <mxPoint x="19" y="-14" as="offset" />
          </mxGeometry>
        </mxCell>
        <mxCell id="OQSpTz7OSguxNGqay04v-10" value="&lt;font style=&quot;font-size: 14px;&quot;&gt;&lt;b&gt;Create a new user account&amp;nbsp;&lt;/b&gt;&lt;/font&gt;" style="html=1;verticalAlign=bottom;endArrow=open;dashed=1;endSize=8;curved=0;rounded=0;strokeWidth=2;" parent="1" source="yFhiEoL9sG4I5cicUTSf-4" edge="1">
          <mxGeometry relative="1" as="geometry">
            <mxPoint x="412" y="226" as="sourcePoint" />
            <mxPoint x="90" y="229" as="targetPoint" />
          </mxGeometry>
        </mxCell>
        <mxCell id="OQSpTz7OSguxNGqay04v-13" value="&lt;b style=&quot;border-color: var(--border-color); font-size: 14px;&quot;&gt;Fill out the required&lt;br style=&quot;border-color: var(--border-color);&quot;&gt;registration form fields&lt;/b&gt;" style="html=1;verticalAlign=bottom;endArrow=block;curved=0;rounded=0;strokeWidth=2;" parent="1" edge="1">
          <mxGeometry width="80" relative="1" as="geometry">
            <mxPoint x="90" y="111" as="sourcePoint" />
            <mxPoint x="412" y="111" as="targetPoint" />
          </mxGeometry>
        </mxCell>
        <mxCell id="OQSpTz7OSguxNGqay04v-15" value="&lt;font style=&quot;font-size: 14px;&quot;&gt;&lt;b&gt;Mail is invalid message&lt;/b&gt;&lt;/font&gt;" style="html=1;verticalAlign=bottom;endArrow=open;dashed=1;endSize=8;curved=0;rounded=0;strokeWidth=2;" parent="1" edge="1">
          <mxGeometry relative="1" as="geometry">
            <mxPoint x="413" y="329" as="sourcePoint" />
            <mxPoint x="88" y="329" as="targetPoint" />
          </mxGeometry>
        </mxCell>
        <mxCell id="OQSpTz7OSguxNGqay04v-16" value="&lt;span style=&quot;font-size: 14px;&quot;&gt;&lt;b&gt;Send a verification mail&lt;/b&gt;&lt;/span&gt;" style="html=1;verticalAlign=bottom;endArrow=block;curved=0;rounded=0;strokeWidth=2;" parent="1" target="yFhiEoL9sG4I5cicUTSf-3" edge="1">
          <mxGeometry width="80" relative="1" as="geometry">
            <mxPoint x="412" y="399" as="sourcePoint" />
            <mxPoint x="78" y="399" as="targetPoint" />
          </mxGeometry>
        </mxCell>
        <mxCell id="OQSpTz7OSguxNGqay04v-17" value="&lt;font style=&quot;font-size: 14px;&quot;&gt;&lt;b&gt;Click on the verification link&lt;/b&gt;&lt;/font&gt;" style="html=1;verticalAlign=bottom;endArrow=open;dashed=1;endSize=8;curved=0;rounded=0;strokeWidth=2;" parent="1" edge="1">
          <mxGeometry relative="1" as="geometry">
            <mxPoint x="94" y="456" as="sourcePoint" />
            <mxPoint x="412" y="456" as="targetPoint" />
          </mxGeometry>
        </mxCell>
        <mxCell id="OQSpTz7OSguxNGqay04v-22" value="" style="endArrow=open;endFill=1;endSize=12;html=1;rounded=0;strokeWidth=2;" parent="1" edge="1">
          <mxGeometry width="160" relative="1" as="geometry">
            <mxPoint x="413" y="483" as="sourcePoint" />
            <mxPoint x="757" y="483" as="targetPoint" />
          </mxGeometry>
        </mxCell>
        <mxCell id="OQSpTz7OSguxNGqay04v-23" value="&lt;span style=&quot;font-size: 14px;&quot;&gt;&lt;b&gt;Save user data&lt;/b&gt;&lt;/span&gt;" style="edgeLabel;html=1;align=center;verticalAlign=middle;resizable=0;points=[];" parent="OQSpTz7OSguxNGqay04v-22" vertex="1" connectable="0">
          <mxGeometry x="0.0932" y="2" relative="1" as="geometry">
            <mxPoint x="-25" y="-10" as="offset" />
          </mxGeometry>
        </mxCell>
        <mxCell id="l2MwB7gc6YeMdWQXfjej-1" value="&lt;b&gt;Loop&lt;/b&gt;" style="shape=umlFrame;whiteSpace=wrap;html=1;pointerEvents=0;" vertex="1" parent="1">
          <mxGeometry x="1" y="248" width="814" height="123" as="geometry" />
        </mxCell>
      </root>
    </mxGraphModel>
  </diagram>
</mxfile>
